<svg width="48" height="48" viewBox="0 0 48 48" fill="none" xmlns="http://www.w3.org/2000/svg">
  <!-- Figma Event Bookings: green hand / click icon -->
  <path
    d="M24 8V6M36 20H38M10 20H12M14.686 10.686L13.272 9.272M33.314 10.686L34.728 9.272M20 18C20 16.9391 20.4214 15.9217 21.1716 15.1716C21.9217 14.4214 22.9391 14 24 14C25.0609 14 26.0783 14.4214 26.8284 15.1716C27.5786 15.9217 28 16.9391 28 18V28C28 28.5304 28.2107 29.0391 28.5858 29.4142C28.9609 29.7893 29.4696 30 30 30H32C34.1217 30 36.1566 30.8429 37.6569 32.3431C39.1571 33.8434 40 35.8783 40 38V42M20 36L15.2 29.6C14.8274 29.1032 14.3443 28.7 13.7889 28.4223C13.2334 28.1446 12.621 28 12 28H11.132C9.402 28 8 29.402 8 31.132C8 31.7 8.154 32.258 8.446 32.744L14 42"
    stroke="#4CAF4F"
    stroke-width="2"
    stroke-linecap="round"
    stroke-linejoin="round"
  />
</svg>
